<?xml version="1.0" encoding="UTF-8" standalone="no"?><!DOCTYPE svg PUBLIC "-//W3C//DTD SVG 1.1//EN" "http://www.w3.org/Graphics/SVG/1.1/DTD/svg11.dtd"><svg width="100%" height="100%" viewBox="0 0 421 52" version="1.1" xmlns="http://www.w3.org/2000/svg" xmlns:xlink="http://www.w3.org/1999/xlink" xml:space="preserve" xmlns:serif="http://www.serif.com/" style="fill-rule:evenodd;clip-rule:evenodd;stroke-linejoin:round;stroke-miterlimit:2;"><g id="prev"><path d="M210.111,3.087c0,-1.704 -1.383,-3.087 -3.087,-3.087l-179.673,0l0,51.457l179.673,0c1.704,0 3.087,-1.384 3.087,-3.088l0,-45.282Z" style="fill:#482f07;"/><path d="M53.995,27.308c0.939,-0.882 0.94,-2.312 0.003,-3.191l-24.95,-23.432c-0.936,-0.88 -2.459,-0.879 -3.398,0.003l-24.945,23.427c-0.939,0.882 -0.94,2.312 -0.003,3.192l24.95,23.431c0.937,0.88 2.459,0.879 3.398,-0.003l24.945,-23.427Z" style="fill:#482f07;"/></g><g id="next"><path d="M210.387,48.369c0,1.704 1.383,3.088 3.087,3.088l179.834,0l0,-51.457l-179.834,0c-1.704,0 -3.087,1.383 -3.087,3.087l0,45.282Z" style="fill:#f6bd60;"/><path d="M366.556,24.149c-0.943,0.881 -0.944,2.311 -0.004,3.191l25.052,23.432c0.94,0.88 2.469,0.878 3.412,-0.003l25.046,-23.427c0.943,-0.882 0.944,-2.312 0.004,-3.192l-25.052,-23.432c-0.941,-0.88 -2.469,-0.878 -3.412,0.003l-25.046,23.428Z" style="fill:#f6bd60;"/><path d="M346.128,3.087c0.692,-1.704 -0.129,-3.087 -1.833,-3.087l-122.755,0l-20.898,51.457l122.755,0c1.704,0 3.649,-1.384 4.341,-3.088l18.39,-45.282Z" style="fill:#f6bd60;"/></g><path d="M221.696,0l-36.46,0l-20.898,51.457l36.46,0l20.898,-51.457Z" style="fill:#482f07;"/></svg>