<?xml version="1.0" encoding="UTF-8" standalone="no"?><!DOCTYPE svg PUBLIC "-//W3C//DTD SVG 1.1//EN" "http://www.w3.org/Graphics/SVG/1.1/DTD/svg11.dtd"><svg width="100%" height="100%" viewBox="0 0 41 43" version="1.1" xmlns="http://www.w3.org/2000/svg" xmlns:xlink="http://www.w3.org/1999/xlink" xml:space="preserve" xmlns:serif="http://www.serif.com/" style="fill-rule:evenodd;clip-rule:evenodd;stroke-linejoin:round;stroke-miterlimit:2;"><g id="Globe"><path d="M37.166,8.175c2.428,1.521 4.418,13.009 3.466,19.067c-3.981,9.778 -9.295,14.993 -20.174,14.993c-1.827,0 -5.259,-0.38 -6.064,-0.489c-0.574,0.326 -3.284,-0.695 -4.767,-1.727c-2.095,-1.521 -4.991,-4.683 -7.103,-8.54c-0.965,-1.738 -1.727,-4.481 -2.286,-8.23c-0.518,-3.476 0.08,-6.98 1.796,-10.511c0.318,-0.652 2.027,-3.395 5.126,-8.23c1.346,-0.163 3.641,-1.059 6.886,-2.689c2.787,-1.358 5.168,-1.956 7.144,-1.793l0.398,0.163c5.263,0.489 14.579,4.346 15.578,7.986Zm-1.159,10.185c-1.53,0.598 -2.42,0.897 -2.669,0.897c-0.83,0 -1.468,-0.516 -1.913,-1.549c0,0 -0.198,-1.331 -0.595,-3.992c-0.235,-1.576 0.2,-2.418 1.305,-2.526l-2.022,-2.282c-3.817,-0.815 -6.805,-1.222 -8.964,-1.222c-4.235,0 -7.278,0.896 -9.128,2.689c-1.675,1.575 -3.03,3.911 -4.063,7.007c-1.133,3.26 -1.493,6.275 -1.08,9.045c0.875,5.867 4.074,8.801 9.596,8.801l5.308,-0.326c0.456,0 1.365,0.108 2.727,0.326c3.688,-2.554 6.233,-4.699 7.635,-6.438c2.51,-2.933 3.798,-6.41 3.863,-10.43Z" style="fill:#f6bd60;fill-rule:nonzero;"/><path d="M20.458,0.66c-11.299,0 -20.458,9.159 -20.458,20.458c0,11.298 9.159,20.457 20.458,20.457c11.299,0 20.458,-9.159 20.458,-20.457c0,-11.299 -9.159,-20.458 -20.458,-20.458Zm-0.936,19.817c-0.238,0.397 -0.668,0.641 -1.131,0.641l-0.026,0c-0.35,0 -0.686,0.139 -0.933,0.387l-0.467,0.466c-0.257,0.258 -0.257,0.676 0,0.933l0.467,0.467c0.247,0.248 0.387,0.584 0.387,0.933l0,0.773c0,0.729 -0.591,1.32 -1.32,1.32l-0.504,0c-0.5,0 -0.957,-0.282 -1.18,-0.73l-1.866,-3.731c-0.202,-0.403 -0.739,-0.49 -1.057,-0.172l-1.606,1.606c-0.248,0.247 -0.583,0.387 -0.933,0.387l-5.162,0c-0.139,-0.862 -0.231,-1.739 -0.231,-2.639c0,-9.097 7.401,-16.499 16.498,-16.499c1.774,0 3.481,0.29 5.084,0.811l-4.138,3.178c-0.422,0.281 -0.382,0.912 0.071,1.139l0.893,0.446c0.447,0.224 0.729,0.681 0.729,1.181l0,6.444c0,0.365 -0.295,0.66 -0.659,0.66l-0.253,0c-0.25,0 -0.478,-0.141 -0.59,-0.365c-0.128,-0.257 -0.491,-0.271 -0.64,-0.024l-1.433,2.388Zm14.134,9.09c0,0.35 -0.139,0.686 -0.387,0.933l-0.789,0.79c-0.247,0.247 -0.583,0.387 -0.933,0.387l-1.251,0c-0.349,0 -0.685,-0.14 -0.933,-0.387l-1.073,-1.074c-0.548,-0.547 -1.345,-0.768 -2.097,-0.58l-1.754,0.439c-0.105,0.026 -0.212,0.039 -0.32,0.039l-0.853,0c-0.35,0 -0.686,-0.139 -0.933,-0.387l-0.983,-0.982c-0.123,-0.124 -0.193,-0.292 -0.193,-0.467l0,-0.842c0,-0.269 0.164,-0.512 0.415,-0.612l3.245,-1.299c0.164,-0.065 0.319,-0.15 0.462,-0.251l1.955,-1.394c0.112,-0.079 0.246,-0.122 0.383,-0.122l0.997,0c0.267,0 0.508,0.16 0.61,0.407l0.441,1.06c0.052,0.123 0.172,0.203 0.305,0.203l0.313,0c0.147,0 0.277,-0.097 0.317,-0.238l0.346,-1.193c0.042,-0.141 0.17,-0.238 0.317,-0.238l0.5,0c0.182,0 0.33,0.148 0.33,0.33l0,1.067c0,0.175 0.069,0.343 0.193,0.467l0.983,0.982c0.247,0.247 0.386,0.583 0.386,0.933l0,2.029l0.001,0Z" style="fill:#f6bd60;fill-rule:nonzero;"/></g></svg>