<?xml version="1.0" encoding="UTF-8" standalone="no"?><!DOCTYPE svg PUBLIC "-//W3C//DTD SVG 1.1//EN" "http://www.w3.org/Graphics/SVG/1.1/DTD/svg11.dtd"><svg width="100%" height="100%" viewBox="0 0 47 24" version="1.1" xmlns="http://www.w3.org/2000/svg" xmlns:xlink="http://www.w3.org/1999/xlink" xml:space="preserve" xmlns:serif="http://www.serif.com/" style="fill-rule:evenodd;clip-rule:evenodd;stroke-linejoin:round;stroke-miterlimit:2;"><g><path d="M32.705,1.349c2.378,-0.16 9.621,-1.652 10.975,-1.294c1.15,0.279 1.695,0.635 1.634,1.068c-0.032,0.226 -0.212,0.512 -0.541,0.858c-0.029,0.207 -0.01,0.491 0.059,0.852c0.068,0.361 0.089,0.636 0.063,0.824l-0.016,0.113c-1.333,-0.05 -3.308,0.087 -5.925,0.413c-0.149,-0.17 -0.394,-0.273 -0.734,-0.31c-0.234,-0.026 -0.54,-0.002 -0.918,0.072c-0.492,0.118 -0.803,0.179 -0.933,0.184c-0.506,0.06 -2.909,0.017 -7.211,-0.129c-1.806,-0.064 -3.655,0.021 -5.546,0.254c0,0 -0.415,-0.046 -1.245,-0.137c-0.575,-0.062 -1.045,-0.018 -1.412,0.133l-20.015,-0.125c-0.213,-0.023 -0.526,-0.488 -0.94,-1.393c0.183,-0.534 0.718,-0.886 1.606,-1.057c0.777,-0.144 2.639,-0.17 5.587,-0.077c2.261,0.056 4.531,0.123 6.811,0.2c2.591,0.016 4.845,-0.11 6.763,-0.378l0.255,0.028c0.383,0.042 2.152,0.063 5.307,0.064c2.897,-0.008 5.023,-0.062 6.376,-0.163Z" style="fill:#482f07;fill-rule:nonzero;"/><path d="M33.07,11.347c2.378,-0.161 9.621,-1.652 10.975,-1.294c1.15,0.278 1.694,0.634 1.634,1.067c-0.032,0.226 -0.212,0.512 -0.542,0.858c-0.029,0.207 -0.009,0.491 0.06,0.852c0.068,0.362 0.089,0.636 0.063,0.824l-0.016,0.113c-1.333,-0.05 -3.308,0.088 -5.925,0.413c-0.149,-0.169 -0.394,-0.272 -0.735,-0.31c-0.234,-0.025 -0.54,-0.001 -0.917,0.072c-0.492,0.118 -0.803,0.18 -0.934,0.185c-0.505,0.059 -2.908,0.016 -7.21,-0.129c-1.806,-0.064 -3.655,0.02 -5.546,0.253c0,0 -0.415,-0.045 -1.245,-0.136c-0.575,-0.063 -1.046,-0.019 -1.413,0.132l-20.014,-0.125c-0.213,-0.023 -0.527,-0.487 -0.94,-1.392c0.183,-0.535 0.718,-0.887 1.606,-1.057c0.777,-0.145 2.639,-0.17 5.586,-0.077c2.262,0.056 4.532,0.122 6.812,0.2c2.591,0.015 4.845,-0.111 6.763,-0.379l0.255,0.028c0.383,0.042 2.152,0.064 5.307,0.065c2.897,-0.009 5.022,-0.063 6.376,-0.163Z" style="fill:#482f07;fill-rule:nonzero;"/><path d="M33.435,20.92c2.378,-0.161 9.62,-1.653 10.975,-1.294c1.15,0.278 1.694,0.634 1.634,1.067c-0.032,0.226 -0.212,0.512 -0.542,0.858c-0.029,0.207 -0.009,0.491 0.059,0.852c0.069,0.361 0.09,0.636 0.063,0.824l-0.015,0.113c-1.333,-0.05 -3.308,0.088 -5.925,0.413c-0.149,-0.169 -0.394,-0.273 -0.735,-0.31c-0.234,-0.025 -0.54,-0.001 -0.917,0.072c-0.492,0.118 -0.804,0.18 -0.934,0.184c-0.505,0.06 -2.909,0.017 -7.21,-0.129c-1.807,-0.063 -3.655,0.021 -5.546,0.254c0,0 -0.415,-0.046 -1.245,-0.136c-0.575,-0.063 -1.046,-0.019 -1.413,0.132l-20.015,-0.125c-0.213,-0.023 -0.526,-0.487 -0.939,-1.393c0.182,-0.534 0.718,-0.886 1.606,-1.057c0.777,-0.144 2.639,-0.17 5.586,-0.077c2.261,0.056 4.532,0.123 6.812,0.201c2.591,0.015 4.845,-0.111 6.762,-0.379l0.256,0.028c0.383,0.042 2.152,0.063 5.307,0.064c2.897,-0.008 5.022,-0.062 6.376,-0.162Z" style="fill:#482f07;fill-rule:nonzero;"/></g></svg>