<?xml version="1.0" encoding="UTF-8" standalone="no"?><!DOCTYPE svg PUBLIC "-//W3C//DTD SVG 1.1//EN" "http://www.w3.org/Graphics/SVG/1.1/DTD/svg11.dtd"><svg width="100%" height="100%" viewBox="0 0 57 57" version="1.1" xmlns="http://www.w3.org/2000/svg" xmlns:xlink="http://www.w3.org/1999/xlink" xml:space="preserve" xmlns:serif="http://www.serif.com/" style="fill-rule:evenodd;clip-rule:evenodd;stroke-linejoin:round;stroke-miterlimit:2;"><g><path d="M38.485,15.787c2.621,-2.999 9.416,-13.32 11.439,-14.497c1.689,-1.029 2.753,-1.253 3.193,-0.669c0.229,0.305 0.354,0.855 0.375,1.653c0.21,0.279 0.568,0.592 1.076,0.937c0.507,0.346 0.857,0.646 1.048,0.899l0.115,0.153c-1.634,1.516 -3.806,4.011 -6.513,7.489c-0.377,-0.025 -0.789,0.143 -1.234,0.501c-0.307,0.246 -0.64,0.636 -1,1.17c-0.442,0.721 -0.737,1.16 -0.885,1.32c-0.527,0.669 -3.417,3.457 -8.673,8.368c-2.21,2.058 -4.294,4.344 -6.253,6.854c0,0 -0.545,0.436 -1.633,1.309c-0.753,0.606 -1.256,1.213 -1.511,1.825l-23.799,23.503c-0.278,0.225 -1.198,0.045 -2.756,-0.535c-0.415,-0.847 -0.199,-1.896 0.648,-3.147c0.748,-1.088 2.918,-3.319 6.511,-6.693c2.738,-2.605 5.5,-5.208 8.285,-7.811c3.08,-3.043 5.595,-5.855 7.544,-8.438l0.335,-0.269c0.502,-0.403 2.617,-2.468 6.346,-6.195c3.414,-3.433 5.862,-6.009 7.342,-7.727Z" style="fill:#f6bd60;fill-rule:nonzero;"/><path d="M18.515,15.787c-2.621,-2.999 -9.416,-13.32 -11.439,-14.497c-1.689,-1.029 -2.753,-1.253 -3.193,-0.669c-0.229,0.305 -0.354,0.855 -0.375,1.653c-0.21,0.279 -0.568,0.592 -1.076,0.937c-0.507,0.346 -0.857,0.646 -1.048,0.899l-0.115,0.153c1.634,1.516 3.806,4.011 6.513,7.489c0.377,-0.025 0.789,0.143 1.234,0.501c0.307,0.246 0.64,0.636 1,1.17c0.442,0.721 0.737,1.16 0.885,1.32c0.527,0.669 3.417,3.457 8.673,8.368c2.21,2.058 4.294,4.344 6.253,6.854c0,0 0.545,0.436 1.633,1.309c0.753,0.606 1.256,1.213 1.511,1.825l23.799,23.503c0.278,0.225 1.198,0.045 2.756,-0.535c0.415,-0.847 0.199,-1.896 -0.648,-3.147c-0.748,-1.088 -2.918,-3.319 -6.511,-6.693c-2.738,-2.605 -5.5,-5.208 -8.285,-7.811c-3.08,-3.043 -5.595,-5.855 -7.544,-8.438l-0.335,-0.269c-0.502,-0.403 -2.617,-2.468 -6.346,-6.195c-3.414,-3.433 -5.862,-6.009 -7.342,-7.727Z" style="fill:#f6bd60;fill-rule:nonzero;"/></g></svg>