<?xml version="1.0" encoding="UTF-8" standalone="no"?><!DOCTYPE svg PUBLIC "-//W3C//DTD SVG 1.1//EN" "http://www.w3.org/Graphics/SVG/1.1/DTD/svg11.dtd"><svg width="100%" height="100%" viewBox="0 0 87 37" version="1.1" xmlns="http://www.w3.org/2000/svg" xmlns:xlink="http://www.w3.org/1999/xlink" xml:space="preserve" xmlns:serif="http://www.serif.com/" style="fill-rule:evenodd;clip-rule:evenodd;stroke-linejoin:round;stroke-miterlimit:2;"><g><path d="M12.41,8.947c0.363,0.375 0.665,0.821 0.905,1.336c0.241,0.516 0.361,1.102 0.361,1.758c0,0.41 -0.068,0.8 -0.202,1.169c-0.135,0.369 -0.326,0.724 -0.572,1.063l9.387,0l0,2.286l-5.783,0c0.644,0.679 1.154,1.462 1.529,2.346c0.375,0.885 0.563,1.831 0.563,2.839c0,1.031 -0.197,2.001 -0.589,2.909c-0.393,0.909 -0.926,1.7 -1.6,2.373c-0.674,0.674 -1.462,1.207 -2.364,1.6c-0.902,0.393 -1.869,0.589 -2.9,0.589c-1.032,0 -2.001,-0.196 -2.91,-0.589c-0.908,-0.393 -1.699,-0.926 -2.373,-1.6c-0.674,-0.673 -1.204,-1.464 -1.591,-2.373c-0.386,-0.908 -0.58,-1.878 -0.58,-2.909c0,-1.008 0.185,-1.954 0.554,-2.839c0.369,-0.884 0.876,-1.667 1.521,-2.346l-5.766,0l0,-2.286l10.055,0c0.504,-0.41 0.832,-0.811 0.984,-1.204c0.152,-0.392 0.229,-0.788 0.229,-1.186c0,-0.434 -0.123,-0.903 -0.37,-1.406c-0.246,-0.504 -0.609,-0.932 -1.089,-1.284l0,-0.246l2.601,0Zm-1.265,7.524c-0.715,0 -1.38,0.134 -1.996,0.404c-0.615,0.27 -1.151,0.636 -1.608,1.099c-0.457,0.463 -0.814,1.007 -1.072,1.634c-0.258,0.627 -0.387,1.298 -0.387,2.013c0,0.703 0.129,1.365 0.387,1.986c0.258,0.622 0.615,1.164 1.072,1.626c0.457,0.463 0.993,0.829 1.608,1.099c0.616,0.27 1.281,0.404 1.996,0.404c0.703,0 1.362,-0.134 1.977,-0.404c0.615,-0.27 1.151,-0.636 1.608,-1.099c0.457,-0.462 0.818,-1.004 1.082,-1.626c0.263,-0.621 0.395,-1.283 0.395,-1.986c0,-0.715 -0.132,-1.386 -0.395,-2.013c-0.264,-0.627 -0.625,-1.171 -1.082,-1.634c-0.457,-0.463 -0.993,-0.829 -1.608,-1.099c-0.615,-0.27 -1.274,-0.404 -1.977,-0.404Zm8.402,-16.471c0.562,0.352 1.034,0.724 1.415,1.116c0.381,0.393 0.685,0.797 0.914,1.213c0.228,0.416 0.393,0.826 0.492,1.231c0.1,0.404 0.15,0.788 0.15,1.151c0,0.516 -0.091,1.049 -0.273,1.6c-0.182,0.55 -0.472,1.054 -0.87,1.511c-0.398,0.457 -0.914,0.835 -1.547,1.134c-0.633,0.299 -1.394,0.448 -2.285,0.448l-7.893,0l0,-2.302l7.629,0c0.492,0 0.914,-0.08 1.266,-0.238c0.351,-0.158 0.642,-0.36 0.87,-0.606c0.229,-0.246 0.398,-0.519 0.51,-0.818c0.111,-0.298 0.167,-0.594 0.167,-0.887c0,-0.352 -0.05,-0.671 -0.15,-0.958c-0.099,-0.287 -0.234,-0.545 -0.404,-0.774c-0.17,-0.228 -0.366,-0.442 -0.589,-0.641c-0.222,-0.2 -0.457,-0.387 -0.703,-0.563l1.301,-1.617Zm-8.93,9.404l-10.617,0l0,-2.302l10.617,0l0,2.302Z" style="fill:#f6bd60;fill-rule:nonzero;"/><path d="M45.105,29.215c-1.031,0 -1.927,-0.155 -2.689,-0.466c-0.762,-0.311 -1.436,-0.718 -2.021,-1.222c-0.586,-0.504 -1.099,-1.078 -1.539,-1.722c-0.439,-0.645 -0.849,-1.301 -1.23,-1.969c-0.381,-0.668 -0.747,-1.324 -1.099,-1.969c-0.351,-0.644 -0.729,-1.219 -1.133,-1.722c-0.405,-0.504 -0.853,-0.912 -1.345,-1.222c-0.492,-0.311 -1.072,-0.466 -1.74,-0.466c-0.586,0 -1.096,0.108 -1.53,0.325c-0.433,0.217 -0.797,0.498 -1.09,0.844c-0.293,0.346 -0.512,0.735 -0.659,1.169c-0.146,0.434 -0.219,0.867 -0.219,1.301c0,0.586 0.064,1.125 0.193,1.617c0.129,0.492 0.319,0.964 0.571,1.415c0.252,0.451 0.563,0.893 0.932,1.327c0.369,0.434 0.794,0.879 1.274,1.336l-1.494,1.775c-0.598,-0.468 -1.14,-0.987 -1.626,-1.555c-0.486,-0.569 -0.896,-1.166 -1.23,-1.793c-0.334,-0.627 -0.592,-1.272 -0.774,-1.934c-0.181,-0.662 -0.272,-1.321 -0.272,-1.977c0,-0.797 0.132,-1.574 0.395,-2.329c0.264,-0.756 0.642,-1.427 1.134,-2.013c0.492,-0.586 1.099,-1.058 1.819,-1.415c0.721,-0.358 1.538,-0.536 2.453,-0.536c0.902,0 1.696,0.152 2.381,0.457c0.686,0.304 1.295,0.709 1.829,1.213c0.533,0.503 1.013,1.078 1.441,1.722c0.428,0.645 0.838,1.301 1.23,1.969c0.393,0.668 0.786,1.324 1.178,1.969c0.393,0.644 0.82,1.218 1.283,1.722c0.463,0.504 0.985,0.909 1.565,1.213c0.58,0.305 1.251,0.457 2.012,0.457c0.61,0 1.202,-0.134 1.776,-0.404c0.574,-0.27 1.084,-0.668 1.529,-1.195c0.445,-0.528 0.806,-1.187 1.081,-1.978c0.276,-0.791 0.413,-1.708 0.413,-2.751c0,-1.301 -0.187,-2.543 -0.562,-3.726c-0.375,-1.184 -0.911,-2.259 -1.609,-3.226c-0.697,-0.967 -1.535,-1.802 -2.513,-2.505c-0.979,-0.703 -2.072,-1.219 -3.279,-1.547l0.317,-2.302c0.855,0.164 1.696,0.448 2.522,0.852c0.826,0.404 1.612,0.908 2.356,1.512c0.744,0.603 1.432,1.298 2.065,2.083c0.633,0.785 1.178,1.646 1.635,2.584c0.457,0.937 0.814,1.939 1.072,3.006c0.258,1.066 0.387,2.179 0.387,3.34c0,1.335 -0.191,2.542 -0.571,3.621c-0.381,1.078 -0.9,1.995 -1.556,2.751c-0.656,0.755 -1.421,1.338 -2.294,1.749c-0.873,0.41 -1.796,0.615 -2.769,0.615Zm4.219,-29.215c0.563,0.352 1.034,0.724 1.415,1.116c0.381,0.393 0.686,0.797 0.914,1.213c0.229,0.416 0.393,0.826 0.493,1.231c0.099,0.404 0.149,0.788 0.149,1.151c0,0.516 -0.091,1.049 -0.273,1.6c-0.181,0.55 -0.471,1.054 -0.87,1.511c-0.398,0.457 -0.914,0.835 -1.547,1.134c-0.632,0.299 -1.394,0.448 -2.285,0.448l-7.892,0l0,-2.302l7.629,0c0.492,0 0.914,-0.08 1.265,-0.238c0.352,-0.158 0.642,-0.36 0.87,-0.606c0.229,-0.246 0.399,-0.519 0.51,-0.818c0.111,-0.298 0.167,-0.594 0.167,-0.887c0,-0.352 -0.05,-0.671 -0.149,-0.958c-0.1,-0.287 -0.235,-0.545 -0.405,-0.774c-0.169,-0.228 -0.366,-0.442 -0.588,-0.641c-0.223,-0.2 -0.457,-0.387 -0.704,-0.563l1.301,-1.617Zm-4.57,9.404l-18.369,0l0,-2.302l18.369,0l0,2.302Z" style="fill:#f6bd60;fill-rule:nonzero;"/><path d="M76.412,18.615c0,0.68 0.226,1.237 0.677,1.67c0.451,0.434 1.034,0.651 1.749,0.651c0.422,0 0.791,-0.103 1.107,-0.308c0.317,-0.205 0.583,-0.457 0.8,-0.756c0.217,-0.299 0.381,-0.624 0.492,-0.976c0.112,-0.351 0.167,-0.679 0.167,-0.984c0,-0.48 -0.052,-0.908 -0.158,-1.283c-0.293,-0.152 -0.612,-0.275 -0.958,-0.369c-0.346,-0.094 -0.706,-0.141 -1.081,-0.141c-0.363,0 -0.712,0.053 -1.046,0.158c-0.334,0.106 -0.63,0.264 -0.888,0.475c-0.257,0.211 -0.465,0.472 -0.624,0.782c-0.158,0.311 -0.237,0.671 -0.237,1.081Zm-19.898,2.672c0,-1.441 0.19,-2.792 0.571,-4.052c0.381,-1.259 0.905,-2.414 1.573,-3.463c0.668,-1.048 1.459,-1.989 2.373,-2.821c0.914,-0.832 1.899,-1.532 2.953,-2.1c1.055,-0.569 2.162,-1.005 3.323,-1.31c1.16,-0.305 2.32,-0.457 3.48,-0.457c1.887,0 3.53,0.237 4.931,0.712c1.4,0.475 2.598,1.101 3.594,1.881c0.997,0.779 1.811,1.661 2.444,2.645c0.633,0.985 1.125,1.987 1.476,3.006c0.516,0.481 0.967,0.987 1.354,1.521c0.387,0.533 0.709,1.066 0.967,1.599c0.258,0.533 0.457,1.058 0.597,1.573c0.141,0.516 0.223,1.002 0.246,1.459c0.059,1.125 -0.09,2.16 -0.448,3.103c-0.357,0.943 -0.876,1.758 -1.555,2.443c-0.68,0.686 -1.503,1.222 -2.47,1.609c-0.967,0.386 -2.025,0.58 -3.173,0.58c-0.937,0 -1.793,-0.144 -2.566,-0.431c-0.774,-0.287 -1.471,-0.665 -2.092,-1.134c-0.621,-0.468 -1.157,-0.999 -1.609,-1.59c-0.451,-0.592 -0.817,-1.193 -1.098,-1.802l-0.088,0c-0.527,0.926 -1.075,1.705 -1.644,2.338c-0.568,0.633 -1.166,1.142 -1.793,1.529c-0.627,0.387 -1.289,0.665 -1.986,0.835c-0.697,0.17 -1.438,0.255 -2.224,0.255c-1.078,0 -2.056,-0.205 -2.935,-0.615c-0.879,-0.411 -1.629,-0.97 -2.25,-1.679c-0.621,-0.709 -1.102,-1.547 -1.442,-2.514c-0.339,-0.967 -0.509,-2.007 -0.509,-3.12Zm15.363,-0.861c0.316,0.867 0.691,1.684 1.125,2.452c0.434,0.768 0.932,1.438 1.494,2.013c0.563,0.574 1.195,1.025 1.899,1.353c0.703,0.328 1.482,0.492 2.337,0.492c0.926,0 1.729,-0.14 2.409,-0.422c0.679,-0.281 1.242,-0.656 1.687,-1.125c0.445,-0.468 0.779,-1.013 1.002,-1.634c0.223,-0.621 0.334,-1.272 0.334,-1.951c0,-0.504 -0.044,-0.97 -0.132,-1.398c-0.088,-0.428 -0.249,-0.87 -0.483,-1.327l-0.106,0.017c-0.058,0.411 -0.187,0.865 -0.386,1.363c-0.2,0.498 -0.487,0.961 -0.862,1.388c-0.375,0.428 -0.841,0.789 -1.397,1.082c-0.557,0.292 -1.216,0.439 -1.978,0.439c-0.738,0 -1.394,-0.126 -1.968,-0.378c-0.575,-0.252 -1.058,-0.586 -1.451,-1.002c-0.392,-0.416 -0.688,-0.885 -0.887,-1.406c-0.2,-0.522 -0.299,-1.052 -0.299,-1.591c0,-0.645 0.108,-1.257 0.325,-1.837c0.217,-0.58 0.53,-1.087 0.94,-1.52c0.411,-0.434 0.917,-0.78 1.521,-1.038c0.603,-0.257 1.286,-0.386 2.048,-0.386c0.082,0 0.193,0.006 0.334,0.017c0.14,0.012 0.281,0.024 0.422,0.035c0.14,0.012 0.272,0.027 0.395,0.044c0.123,0.018 0.202,0.027 0.237,0.027l0.018,-0.035c-0.457,-0.832 -0.987,-1.553 -1.591,-2.162c-0.603,-0.61 -1.292,-1.111 -2.065,-1.503c-0.774,-0.393 -1.638,-0.686 -2.593,-0.879c-0.955,-0.194 -2.018,-0.29 -3.19,-0.29c-0.668,0 -1.424,0.093 -2.268,0.281c-0.844,0.187 -1.705,0.483 -2.584,0.888c-0.879,0.404 -1.74,0.92 -2.584,1.546c-0.844,0.627 -1.594,1.38 -2.25,2.259c-0.656,0.879 -1.186,1.887 -1.591,3.024c-0.404,1.136 -0.606,2.414 -0.606,3.832c0,0.668 0.094,1.339 0.281,2.012c0.188,0.674 0.478,1.278 0.87,1.811c0.393,0.533 0.888,0.97 1.486,1.31c0.597,0.339 1.306,0.509 2.126,0.509c0.809,0 1.556,-0.152 2.242,-0.457c0.685,-0.304 1.315,-0.732 1.889,-1.283c0.575,-0.551 1.093,-1.213 1.556,-1.986c0.463,-0.774 0.87,-1.635 1.222,-2.584l1.072,0Zm10.125,-20.426c0.562,0.352 1.034,0.724 1.415,1.116c0.381,0.393 0.686,0.797 0.914,1.213c0.229,0.416 0.393,0.826 0.492,1.231c0.1,0.404 0.15,0.788 0.15,1.151c0,0.516 -0.091,1.049 -0.273,1.6c-0.181,0.55 -0.471,1.054 -0.87,1.511c-0.398,0.457 -0.914,0.835 -1.547,1.134c-0.633,0.299 -1.394,0.448 -2.285,0.448l-7.893,0l0,-2.302l7.629,0c0.493,0 0.914,-0.08 1.266,-0.238c0.352,-0.158 0.642,-0.36 0.87,-0.606c0.229,-0.246 0.399,-0.519 0.51,-0.818c0.111,-0.298 0.167,-0.594 0.167,-0.887c0,-0.352 -0.05,-0.671 -0.15,-0.958c-0.099,-0.287 -0.234,-0.545 -0.404,-0.774c-0.17,-0.228 -0.366,-0.442 -0.589,-0.641c-0.222,-0.2 -0.457,-0.387 -0.703,-0.563l1.301,-1.617Zm-6.662,9.404l-18.369,0l0,-2.302l18.369,0l0,2.302Z" style="fill:#f6bd60;fill-rule:nonzero;"/><path d="M52.723,32.562c0.399,0.716 0.702,1.545 0.911,2.487c0.209,0.942 0.178,0.735 0.213,1.472l-1.385,0.22c0.005,-0.655 0.072,0.261 0,-0.441c-0.071,-0.701 -0.239,-1.384 -0.504,-2.049l-0.044,-0.017c-0.264,0.419 -0.559,0.753 -0.885,1.003c-0.327,0.25 -0.661,0.43 -1.002,0.542c-0.342,0.112 -0.682,0.158 -1.02,0.139c-0.338,-0.019 -0.652,-0.085 -0.942,-0.196c-0.408,-0.158 -0.754,-0.378 -1.037,-0.662c-0.284,-0.284 -0.498,-0.603 -0.643,-0.957c-0.145,-0.355 -0.217,-0.732 -0.217,-1.133c0.001,-0.401 0.075,-0.794 0.224,-1.181c0.123,-0.319 0.304,-0.618 0.544,-0.897c0.239,-0.279 0.52,-0.508 0.84,-0.688c0.321,-0.179 0.671,-0.292 1.051,-0.338c0.381,-0.045 0.771,0.009 1.173,0.163c0.364,0.141 0.665,0.295 0.903,0.463c0.238,0.169 0.472,0.374 0.703,0.616l0.781,-2.028l1.46,0.562l-1.124,2.92Zm-4.182,1.692c0.274,0.106 0.536,0.136 0.784,0.09c0.247,-0.045 0.475,-0.143 0.682,-0.294c0.207,-0.15 0.393,-0.339 0.557,-0.566c0.164,-0.227 0.304,-0.467 0.419,-0.722c-0.145,-0.243 -0.333,-0.476 -0.564,-0.697c-0.231,-0.22 -0.487,-0.385 -0.769,-0.494c-0.268,-0.103 -0.509,-0.14 -0.725,-0.112c-0.215,0.028 -0.404,0.092 -0.566,0.191c-0.162,0.1 -0.296,0.219 -0.4,0.358c-0.105,0.139 -0.18,0.268 -0.226,0.387c-0.074,0.193 -0.106,0.386 -0.094,0.578c0.011,0.192 0.055,0.373 0.13,0.542c0.075,0.17 0.18,0.319 0.314,0.448c0.134,0.128 0.287,0.225 0.458,0.291Z" style="fill:#f6bd60;fill-rule:nonzero;"/></g></svg>