<?xml version="1.0" encoding="UTF-8" standalone="no"?><!DOCTYPE svg PUBLIC "-//W3C//DTD SVG 1.1//EN" "http://www.w3.org/Graphics/SVG/1.1/DTD/svg11.dtd"><svg width="100%" height="100%" viewBox="0 0 94 36" version="1.1" xmlns="http://www.w3.org/2000/svg" xmlns:xlink="http://www.w3.org/1999/xlink" xml:space="preserve" xmlns:serif="http://www.serif.com/" style="fill-rule:evenodd;clip-rule:evenodd;stroke-linejoin:round;stroke-miterlimit:2;"><g><path d="M30.78,9.288l0,2.772l-4.68,0l0,23.868l-3.096,0l0,-13.68l-6.588,0l0,2.124c0,5.28 -2.172,7.92 -6.516,7.92c-1.92,0 -3.528,-0.6 -4.824,-1.8c-1.296,-1.2 -1.944,-2.736 -1.944,-4.608c0,-4.2 2.808,-6.3 8.424,-6.3l1.872,0l0,-7.524l-13.428,0l0,-2.772l30.78,0Zm-17.352,15.12l0,-2.16l-2.088,0c-1.68,0 -2.97,0.27 -3.87,0.81c-0.9,0.54 -1.35,1.422 -1.35,2.646c0,1.224 0.354,2.172 1.062,2.844c0.708,0.672 1.674,1.008 2.898,1.008c1.224,0 2.088,-0.426 2.592,-1.278c0.504,-0.852 0.756,-2.142 0.756,-3.87Zm9.576,-4.824l0,-7.524l-6.588,0l0,7.524l6.588,0Z" style="fill:#f6bd60;fill-rule:nonzero;"/><path d="M45.576,12.06l0,1.8c0,2.136 -0.132,3.816 -0.396,5.04c-0.264,1.224 -0.786,2.214 -1.566,2.97c-0.78,0.756 -1.782,1.266 -3.006,1.53c-1.224,0.264 -2.904,0.396 -5.04,0.396l0,4.464c0,3.312 1.314,4.968 3.942,4.968c2.628,0 3.942,-1.62 3.942,-4.86l3.096,0c0,2.352 -0.612,4.212 -1.836,5.58c-1.224,1.368 -2.964,2.052 -5.22,2.052c-2.256,0 -3.996,-0.696 -5.22,-2.088c-1.224,-1.392 -1.836,-3.264 -1.836,-5.616l0,-7.128l1.8,0c1.032,0 1.902,-0.006 2.61,-0.018c0.708,-0.012 1.524,-0.102 2.448,-0.27c0.924,-0.168 1.512,-0.372 1.764,-0.612c0.252,-0.24 0.534,-0.672 0.846,-1.296c0.312,-0.624 0.486,-1.314 0.522,-2.07c0.036,-0.756 0.054,-1.806 0.054,-3.15l0,-1.692l-14.292,0l0,-2.772l21.456,0l0,2.772l-4.068,0Z" style="fill:#f6bd60;fill-rule:nonzero;"/><path d="M59.544,12.06l-4.68,0l0,23.868l-3.096,0l0,-23.868l-4.716,0l0,-2.772l12.492,0l0,2.772Z" style="fill:#f6bd60;fill-rule:nonzero;"/><path d="M75.366,20.268c-1.212,-1.2 -2.802,-1.8 -4.77,-1.8c-1.968,0 -3.558,0.6 -4.77,1.8c-1.212,1.2 -1.818,2.772 -1.818,4.716c0,1.944 0.606,3.516 1.818,4.716c1.212,1.2 2.802,1.8 4.77,1.8c1.968,0 3.558,-0.6 4.77,-1.8c1.212,-1.2 1.818,-2.772 1.818,-4.716c0,-1.944 -0.606,-3.516 -1.818,-4.716Zm-3.222,-4.392c2.4,0.288 4.356,1.254 5.868,2.898c1.512,1.644 2.268,3.774 2.268,6.39c0,2.616 -0.912,4.776 -2.736,6.48c-1.824,1.704 -4.14,2.556 -6.948,2.556c-2.808,0 -5.118,-0.852 -6.93,-2.556c-1.812,-1.704 -2.718,-3.858 -2.718,-6.462c0,-2.604 0.75,-4.728 2.25,-6.372c1.5,-1.644 3.45,-2.622 5.85,-2.934l0,-3.816l-12.096,0l0,-2.772l26.676,0l0,2.772l-11.484,0l0,3.816Z" style="fill:#f6bd60;fill-rule:nonzero;"/><path d="M88.848,9.288l4.68,0l0,2.772l-4.68,0l0,23.868l-3.096,0l0,-23.868l-4.716,0l0,-2.772l4.86,0l0,-1.044c0,-1.92 -0.258,-3.318 -0.774,-4.194c-0.516,-0.876 -1.47,-1.314 -2.862,-1.314c-1.392,0 -2.346,0.444 -2.862,1.332c-0.516,0.888 -0.774,2.28 -0.774,4.176l0,2.412l-2.952,0l0,-2.736c0,-2.496 0.498,-4.44 1.494,-5.832c0.996,-1.392 2.7,-2.088 5.112,-2.088c2.412,0 4.11,0.696 5.094,2.088c0.984,1.392 1.476,3.336 1.476,5.832l0,1.368Z" style="fill:#f6bd60;fill-rule:nonzero;"/></g></svg>