<?xml version="1.0" encoding="UTF-8" standalone="no"?><!DOCTYPE svg PUBLIC "-//W3C//DTD SVG 1.1//EN" "http://www.w3.org/Graphics/SVG/1.1/DTD/svg11.dtd"><svg width="100%" height="100%" viewBox="0 0 106 41" version="1.1" xmlns="http://www.w3.org/2000/svg" xmlns:xlink="http://www.w3.org/1999/xlink" xml:space="preserve" xmlns:serif="http://www.serif.com/" style="fill-rule:evenodd;clip-rule:evenodd;stroke-linejoin:round;stroke-miterlimit:2;"><g><path d="M27.106,27.404c0,1.535 -0.281,2.889 -0.844,4.061c-0.562,1.172 -1.365,2.153 -2.408,2.944c-1.043,0.791 -2.312,1.389 -3.806,1.793c-1.494,0.404 -3.178,0.606 -5.053,0.606c-1.817,0 -3.592,-0.003 -5.327,-0.008c-1.734,-0.006 -3.422,-0.009 -5.062,-0.009c-0.703,0 -1.198,0.085 -1.485,0.255c-0.288,0.17 -0.431,0.477 -0.431,0.923c0,0.269 0.032,0.533 0.097,0.791c0.064,0.257 0.161,0.515 0.29,0.773l-2.584,0c-0.129,-0.293 -0.244,-0.612 -0.343,-0.958c-0.1,-0.346 -0.15,-0.7 -0.15,-1.063c0,-1.114 0.364,-1.934 1.09,-2.461c0.727,-0.528 1.793,-0.791 3.199,-0.791c0.68,0 1.459,0 2.338,0c0.879,0 1.799,0.003 2.76,0.008c0.961,0.006 1.937,0.009 2.927,0.009c0.99,0 1.936,0 2.839,0c0.41,0 0.805,-0.006 1.186,-0.017c0.381,-0.012 0.747,-0.041 1.099,-0.088c1.055,-0.153 1.995,-0.408 2.821,-0.765c0.826,-0.357 1.527,-0.814 2.101,-1.371c0.574,-0.557 1.011,-1.207 1.309,-1.951c0.299,-0.744 0.449,-1.579 0.449,-2.505c0,-0.949 -0.132,-1.743 -0.396,-2.382c-0.264,-0.639 -0.627,-1.154 -1.09,-1.547c-0.463,-0.392 -1.016,-0.674 -1.661,-0.844c-0.644,-0.169 -1.342,-0.254 -2.092,-0.254l-2.092,0l0,1.775c0,1.465 -0.19,2.692 -0.571,3.683c-0.381,0.99 -0.958,1.825 -1.731,2.504c-0.703,0.61 -1.559,1.073 -2.567,1.389c-1.007,0.317 -2.156,0.475 -3.445,0.475c-1.324,0 -2.49,-0.173 -3.498,-0.519c-1.008,-0.346 -1.849,-0.817 -2.522,-1.415c-0.674,-0.598 -1.181,-1.295 -1.521,-2.092c-0.34,-0.797 -0.51,-1.646 -0.51,-2.549c0,-1.535 0.396,-2.771 1.187,-3.708c0.791,-0.938 1.854,-1.559 3.19,-1.864l0,-9.281l20.004,0l0,2.584l-8.015,0l0,6.451l1.968,0c1.266,0 2.411,0.141 3.437,0.422c1.025,0.281 1.901,0.721 2.628,1.318c0.726,0.598 1.289,1.366 1.687,2.303c0.399,0.938 0.598,2.063 0.598,3.375Zm-13.201,-4.851l-6.364,0c-1.347,0 -2.373,0.246 -3.076,0.738c-0.703,0.492 -1.054,1.306 -1.054,2.443c0,0.586 0.108,1.125 0.325,1.617c0.217,0.493 0.542,0.914 0.975,1.266c0.434,0.352 0.973,0.627 1.618,0.826c0.644,0.199 1.394,0.299 2.25,0.299c1.804,0 3.143,-0.431 4.016,-1.292c0.873,-0.861 1.31,-2.241 1.31,-4.14l0,-1.757Zm0,-9.018l-6.241,0l0,6.451l6.241,0l0,-6.451Z" style="fill:#f6bd60;fill-rule:nonzero;"/><path d="M61.12,23.431c0,1.536 -0.1,3.006 -0.299,4.413c-0.2,1.406 -0.492,2.789 -0.879,4.148l-26.86,0l0,-21.041l2.883,0l0,18.457l8.701,0l0,-11.619c0,-1.383 0.153,-2.52 0.457,-3.41c0.305,-0.891 0.791,-1.629 1.459,-2.215c0.575,-0.516 1.266,-0.908 2.075,-1.178c0.808,-0.269 1.746,-0.404 2.812,-0.404c1.172,0 2.224,0.155 3.155,0.466c0.932,0.31 1.755,0.75 2.47,1.318c0.715,0.568 1.327,1.248 1.837,2.039c0.51,0.791 0.926,1.661 1.248,2.61c0.322,0.95 0.56,1.966 0.712,3.05c0.152,1.084 0.229,2.206 0.229,3.366Zm-2.954,0.211c0,-1.523 -0.12,-2.921 -0.36,-4.192c-0.24,-1.271 -0.624,-2.37 -1.151,-3.296c-0.528,-0.926 -1.21,-1.646 -2.048,-2.162c-0.838,-0.516 -1.855,-0.773 -3.05,-0.773c-0.738,0 -1.362,0.096 -1.872,0.29c-0.51,0.193 -0.923,0.489 -1.239,0.887c-0.317,0.399 -0.545,0.897 -0.686,1.494c-0.14,0.598 -0.211,1.307 -0.211,2.127l0,11.391l9.879,0c0.223,-0.844 0.401,-1.749 0.536,-2.716c0.135,-0.967 0.202,-1.983 0.202,-3.05Z" style="fill:#f6bd60;fill-rule:nonzero;"/><path d="M66.92,31.992l0,-21.762c0,-1.148 -0.052,-2.191 -0.158,-3.129c-0.105,-0.937 -0.322,-1.737 -0.65,-2.399c-0.328,-0.662 -0.797,-1.175 -1.407,-1.538c-0.609,-0.363 -1.417,-0.545 -2.425,-0.545c-0.703,0 -1.336,0.102 -1.899,0.308c-0.562,0.205 -1.037,0.495 -1.424,0.87c-0.386,0.375 -0.685,0.823 -0.896,1.344c-0.211,0.522 -0.316,1.099 -0.316,1.732c0,0.82 0.117,1.611 0.351,2.373c0.234,0.762 0.574,1.476 1.02,2.144l-2.707,0c-0.2,-0.293 -0.378,-0.624 -0.537,-0.993c-0.158,-0.369 -0.298,-0.756 -0.421,-1.16c-0.123,-0.404 -0.217,-0.814 -0.282,-1.23c-0.064,-0.416 -0.096,-0.818 -0.096,-1.204c0,-1.079 0.184,-2.04 0.553,-2.883c0.37,-0.844 0.882,-1.556 1.538,-2.136c0.657,-0.58 1.433,-1.022 2.33,-1.327c0.896,-0.305 1.866,-0.457 2.909,-0.457c0.843,0 1.593,0.079 2.25,0.237c0.656,0.158 1.239,0.375 1.749,0.651c0.51,0.275 0.949,0.603 1.318,0.984c0.369,0.381 0.677,0.8 0.923,1.257c0.445,0.808 0.75,1.734 0.914,2.777c0.164,1.043 0.246,2.268 0.246,3.674l0,22.412l-2.883,0Z" style="fill:#f6bd60;fill-rule:nonzero;"/><path d="M105.082,22.869c0,1.312 -0.105,2.558 -0.316,3.735c-0.211,1.178 -0.469,2.271 -0.773,3.279l-12.411,0l0,2.935l7.19,0l0,2.479l-8.842,0c-0.34,0 -0.612,0.052 -0.817,0.158c-0.205,0.105 -0.431,0.322 -0.677,0.65c-0.094,0.129 -0.188,0.255 -0.281,0.378c-0.094,0.123 -0.188,0.255 -0.282,0.396c-0.726,1.008 -1.564,1.79 -2.513,2.346c-0.949,0.557 -2.104,0.835 -3.463,0.835c-0.797,0 -1.526,-0.105 -2.189,-0.316c-0.662,-0.211 -1.227,-0.51 -1.696,-0.897c-0.469,-0.386 -0.832,-0.855 -1.09,-1.406c-0.258,-0.551 -0.386,-1.16 -0.386,-1.828c0,-0.551 0.093,-1.066 0.281,-1.547c0.187,-0.48 0.454,-0.899 0.8,-1.257c0.345,-0.357 0.767,-0.638 1.265,-0.843c0.498,-0.205 1.058,-0.308 1.679,-0.308c0.492,0 0.949,0.062 1.371,0.185c0.422,0.123 0.788,0.298 1.099,0.527c0.31,0.228 0.556,0.507 0.738,0.835c0.182,0.328 0.272,0.703 0.272,1.125c0,0.305 -0.061,0.612 -0.184,0.923c-0.123,0.31 -0.296,0.571 -0.519,0.782l-2.021,-0.879c0.094,-0.094 0.161,-0.205 0.202,-0.334c0.041,-0.129 0.061,-0.258 0.061,-0.387c0,-0.234 -0.084,-0.433 -0.254,-0.597c-0.17,-0.164 -0.425,-0.246 -0.765,-0.246c-0.434,0 -0.782,0.146 -1.046,0.439c-0.264,0.293 -0.395,0.744 -0.395,1.354c0,0.398 0.073,0.747 0.219,1.045c0.147,0.299 0.346,0.548 0.598,0.748c0.252,0.199 0.551,0.348 0.896,0.448c0.346,0.099 0.718,0.149 1.117,0.149c0.457,0 0.87,-0.061 1.239,-0.184c0.369,-0.123 0.712,-0.296 1.028,-0.519c0.317,-0.223 0.607,-0.486 0.87,-0.791c0.264,-0.305 0.519,-0.633 0.765,-0.984c0.117,-0.164 0.234,-0.334 0.352,-0.51c0.117,-0.176 0.228,-0.352 0.333,-0.527c0.34,-0.504 0.689,-0.859 1.046,-1.064c0.358,-0.205 0.73,-0.319 1.117,-0.343l0,-2.97l-11.69,0l0,-18.932l2.883,0l0,16.348l8.807,0l0,-9.369c0,-2.555 0.574,-4.418 1.722,-5.59c1.149,-1.172 2.824,-1.758 5.028,-1.758c1.769,0 3.266,0.331 4.491,0.993c1.224,0.662 2.218,1.556 2.979,2.681c0.762,1.125 1.313,2.428 1.653,3.911c0.34,1.482 0.509,3.05 0.509,4.702Zm-2.988,0.123c0,-1.313 -0.097,-2.558 -0.29,-3.735c-0.193,-1.178 -0.542,-2.215 -1.046,-3.112c-0.504,-0.896 -1.183,-1.608 -2.039,-2.135c-0.855,-0.528 -1.939,-0.791 -3.252,-0.791c-0.726,0 -1.336,0.096 -1.828,0.29c-0.492,0.193 -0.891,0.492 -1.195,0.896c-0.305,0.404 -0.525,0.92 -0.659,1.547c-0.135,0.627 -0.203,1.368 -0.203,2.224l0,9.105l9.967,0c0.364,-1.312 0.545,-2.742 0.545,-4.289Z" style="fill:#f6bd60;fill-rule:nonzero;"/><path d="M96.346,4.236c0,0.363 -0.067,0.703 -0.202,1.02c-0.135,0.316 -0.319,0.591 -0.554,0.826c-0.234,0.234 -0.51,0.419 -0.826,0.554c-0.316,0.134 -0.656,0.202 -1.019,0.202c-0.364,0 -0.704,-0.068 -1.02,-0.202c-0.316,-0.135 -0.592,-0.32 -0.826,-0.554c-0.235,-0.235 -0.419,-0.51 -0.554,-0.826c-0.135,-0.317 -0.202,-0.657 -0.202,-1.02c0,-0.363 0.067,-0.706 0.202,-1.028c0.135,-0.322 0.319,-0.601 0.554,-0.835c0.234,-0.235 0.51,-0.422 0.826,-0.563c0.316,-0.14 0.656,-0.211 1.02,-0.211c0.363,0 0.703,0.071 1.019,0.211c0.316,0.141 0.592,0.328 0.826,0.563c0.235,0.234 0.419,0.513 0.554,0.835c0.135,0.322 0.202,0.665 0.202,1.028Z" style="fill:#f6bd60;fill-rule:nonzero;"/></g></svg>