<?xml version="1.0" encoding="UTF-8" standalone="no"?><!DOCTYPE svg PUBLIC "-//W3C//DTD SVG 1.1//EN" "http://www.w3.org/Graphics/SVG/1.1/DTD/svg11.dtd"><svg width="100%" height="100%" viewBox="0 0 107 32" version="1.1" xmlns="http://www.w3.org/2000/svg" xmlns:xlink="http://www.w3.org/1999/xlink" xml:space="preserve" xmlns:serif="http://www.serif.com/" style="fill-rule:evenodd;clip-rule:evenodd;stroke-linejoin:round;stroke-miterlimit:2;"><g><g><path d="M17.701,17.854c0,0.304 0.056,0.586 0.167,0.843c0.111,0.258 0.264,0.481 0.457,0.668c0.194,0.188 0.425,0.337 0.695,0.449c0.269,0.111 0.562,0.167 0.878,0.167c0.282,0 0.56,-0.05 0.835,-0.15c0.276,-0.099 0.519,-0.249 0.73,-0.448c0.211,-0.199 0.384,-0.454 0.518,-0.765c0.135,-0.31 0.203,-0.676 0.203,-1.098c0,-0.246 -0.024,-0.507 -0.071,-0.782c-0.047,-0.276 -0.14,-0.548 -0.281,-0.818c-0.269,-0.141 -0.542,-0.234 -0.817,-0.281c-0.276,-0.047 -0.536,-0.07 -0.783,-0.07c-0.421,0 -0.791,0.067 -1.107,0.202c-0.316,0.134 -0.58,0.307 -0.791,0.518c-0.211,0.211 -0.369,0.454 -0.475,0.73c-0.105,0.275 -0.158,0.553 -0.158,0.835Zm-3.199,-6.662l0,-2.198c1.172,0 2.227,0.126 3.164,0.378c0.938,0.252 1.77,0.604 2.496,1.055c0.727,0.451 1.359,0.996 1.899,1.635c0.539,0.638 1.002,1.344 1.388,2.118c0.867,0.445 1.597,0.949 2.189,1.512c0.591,0.562 1.072,1.151 1.441,1.766c0.369,0.615 0.636,1.248 0.8,1.899c0.164,0.65 0.246,1.286 0.246,1.907c0,1.301 -0.196,2.443 -0.589,3.428c-0.392,0.984 -0.932,1.842 -1.617,2.575c-0.686,0.732 -1.485,1.345 -2.399,1.837c-0.915,0.492 -1.893,0.884 -2.936,1.177c-1.043,0.293 -2.121,0.504 -3.234,0.633c-1.114,0.129 -2.209,0.194 -3.288,0.194c-1.078,0 -2.173,-0.065 -3.287,-0.194c-1.113,-0.129 -2.191,-0.34 -3.234,-0.633c-1.043,-0.293 -2.021,-0.685 -2.936,-1.177c-0.914,-0.492 -1.713,-1.105 -2.399,-1.837c-0.685,-0.733 -1.225,-1.594 -1.617,-2.584c-0.393,-0.99 -0.589,-2.13 -0.589,-3.419c0,-1.043 0.211,-2.039 0.633,-2.988c0.422,-0.95 0.996,-1.788 1.722,-2.514c0.727,-0.727 1.585,-1.304 2.576,-1.732c0.99,-0.427 2.053,-0.641 3.19,-0.641c0.738,0 1.392,0.132 1.96,0.395c0.568,0.264 1.046,0.607 1.433,1.029c0.386,0.422 0.679,0.902 0.879,1.441c0.199,0.539 0.298,1.078 0.298,1.617c0,0.528 -0.105,1.049 -0.316,1.565c-0.211,0.515 -0.516,0.981 -0.914,1.397c-0.398,0.416 -0.879,0.753 -1.441,1.011c-0.563,0.258 -1.196,0.387 -1.899,0.387c-0.633,0 -1.213,-0.109 -1.74,-0.326c-0.527,-0.216 -0.982,-0.512 -1.362,-0.887c-0.381,-0.375 -0.674,-0.815 -0.879,-1.319c-0.205,-0.503 -0.308,-1.043 -0.308,-1.617c0,-0.176 0.009,-0.351 0.026,-0.527c0.018,-0.176 0.056,-0.334 0.115,-0.475c-0.188,0.141 -0.381,0.343 -0.58,0.607c-0.2,0.263 -0.384,0.58 -0.554,0.949c-0.17,0.369 -0.311,0.788 -0.422,1.257c-0.111,0.469 -0.167,0.978 -0.167,1.529c0,0.891 0.161,1.685 0.483,2.382c0.323,0.697 0.762,1.312 1.319,1.846c0.556,0.533 1.216,0.987 1.977,1.362c0.762,0.375 1.579,0.683 2.452,0.923c0.873,0.24 1.785,0.416 2.734,0.527c0.949,0.111 1.898,0.167 2.847,0.167c0.938,0 1.884,-0.056 2.839,-0.167c0.955,-0.111 1.87,-0.287 2.743,-0.527c0.873,-0.24 1.687,-0.548 2.443,-0.923c0.756,-0.375 1.415,-0.829 1.977,-1.362c0.563,-0.534 1.005,-1.149 1.328,-1.846c0.322,-0.697 0.483,-1.491 0.483,-2.382c0,-0.387 -0.038,-0.768 -0.114,-1.143c-0.076,-0.375 -0.176,-0.738 -0.299,-1.089c-0.123,-0.352 -0.27,-0.683 -0.44,-0.994c-0.169,-0.31 -0.348,-0.588 -0.536,-0.834l-0.175,0c0.011,0.058 0.017,0.123 0.017,0.193l0,0.193c0,0.574 -0.105,1.131 -0.316,1.67c-0.211,0.539 -0.51,1.017 -0.897,1.433c-0.386,0.416 -0.852,0.75 -1.397,1.002c-0.545,0.252 -1.152,0.378 -1.82,0.378c-0.562,0 -1.116,-0.097 -1.661,-0.29c-0.545,-0.194 -1.034,-0.475 -1.467,-0.844c-0.434,-0.369 -0.786,-0.826 -1.055,-1.371c-0.27,-0.545 -0.404,-1.169 -0.404,-1.872c0,-0.61 0.123,-1.181 0.369,-1.714c0.246,-0.533 0.577,-0.996 0.993,-1.389c0.416,-0.392 0.902,-0.703 1.459,-0.931c0.556,-0.229 1.145,-0.343 1.766,-0.343c0.094,0 0.182,0.003 0.264,0.009c0.082,0.005 0.17,0.014 0.264,0.026l0,-0.088c-0.703,-0.773 -1.547,-1.333 -2.531,-1.679c-0.985,-0.345 -2.116,-0.53 -3.393,-0.553Zm-6.188,8.789c0.282,0 0.542,-0.062 0.783,-0.185c0.24,-0.123 0.454,-0.287 0.641,-0.492c0.188,-0.205 0.334,-0.442 0.44,-0.712c0.105,-0.27 0.158,-0.551 0.158,-0.844c0,-0.668 -0.223,-1.198 -0.668,-1.591c-0.445,-0.392 -1.02,-0.588 -1.723,-0.588c-0.269,0 -0.548,0.026 -0.835,0.079c-0.287,0.052 -0.565,0.137 -0.835,0.255c-0.234,0.609 -0.351,1.148 -0.351,1.617c0,0.422 0.067,0.788 0.202,1.098c0.135,0.311 0.313,0.566 0.536,0.765c0.223,0.199 0.478,0.349 0.765,0.448c0.287,0.1 0.583,0.15 0.887,0.15Zm6.891,-8.789l-0.703,0l0.703,0Z" style="fill:#f6bd60;fill-rule:nonzero;"/><path d="M22.148,7.026c0,-0.668 -0.272,-1.187 -0.817,-1.556c-0.545,-0.369 -1.257,-0.554 -2.136,-0.554l-8.297,0l0,-2.056l8.297,0c0.668,0 1.319,0.079 1.951,0.237c0.633,0.158 1.199,0.407 1.697,0.747c0.498,0.34 0.899,0.773 1.204,1.301c0.305,0.527 0.457,1.154 0.457,1.881c0,0.726 -0.152,1.353 -0.457,1.88c-0.305,0.528 -0.706,0.961 -1.204,1.301c-0.498,0.34 -1.064,0.589 -1.697,0.747c-0.632,0.159 -1.283,0.238 -1.951,0.238l-4.728,0l0,-2.057l4.728,0c0.891,0 1.606,-0.185 2.145,-0.554c0.539,-0.369 0.808,-0.887 0.808,-1.555Z" style="fill:#f6bd60;fill-rule:nonzero;"/></g><path d="M39.759,16.91c0.328,0 0.644,-0.064 0.949,-0.193c0.304,-0.129 0.568,-0.305 0.791,-0.528c0.222,-0.222 0.401,-0.486 0.536,-0.791c0.135,-0.304 0.202,-0.632 0.202,-0.984c0,-0.363 -0.07,-0.694 -0.211,-0.993c-0.14,-0.299 -0.34,-0.557 -0.598,-0.774c-0.257,-0.216 -0.559,-0.386 -0.905,-0.509c-0.345,-0.123 -0.723,-0.185 -1.134,-0.185c-0.234,0 -0.477,0.018 -0.729,0.053c-0.252,0.035 -0.507,0.099 -0.765,0.193c-0.375,0.727 -0.562,1.43 -0.562,2.11c0,0.398 0.067,0.755 0.202,1.072c0.135,0.316 0.313,0.589 0.536,0.817c0.223,0.229 0.481,0.405 0.773,0.528c0.293,0.123 0.598,0.184 0.915,0.184Zm10.23,-7.822c1.289,0.269 2.531,0.729 3.727,1.38c1.195,0.65 2.25,1.459 3.164,2.426c0.914,0.966 1.643,2.077 2.188,3.331c0.545,1.254 0.818,2.619 0.818,4.095c0,1.407 -0.208,2.652 -0.625,3.736c-0.416,1.084 -0.984,2.03 -1.705,2.839c-0.72,0.808 -1.558,1.485 -2.513,2.03c-0.955,0.545 -1.972,0.987 -3.05,1.327c-1.078,0.34 -2.189,0.583 -3.331,0.729c-1.143,0.147 -2.253,0.22 -3.331,0.22c-0.926,0 -1.928,-0.076 -3.006,-0.228c-1.078,-0.153 -2.156,-0.402 -3.234,-0.747c-1.079,-0.346 -2.122,-0.806 -3.129,-1.38c-1.008,-0.575 -1.899,-1.283 -2.672,-2.127c-0.774,-0.844 -1.392,-1.837 -1.855,-2.98c-0.463,-1.142 -0.694,-2.458 -0.694,-3.946c0,-1.348 0.24,-2.625 0.721,-3.832c0.48,-1.207 1.125,-2.268 1.933,-3.182c0.809,-0.914 1.749,-1.637 2.822,-2.171c1.072,-0.533 2.206,-0.799 3.401,-0.799c0.844,0 1.576,0.14 2.197,0.421c0.621,0.282 1.137,0.648 1.547,1.099c0.41,0.451 0.718,0.964 0.923,1.538c0.205,0.574 0.308,1.149 0.308,1.723c0,0.562 -0.115,1.116 -0.343,1.661c-0.229,0.545 -0.554,1.034 -0.976,1.468c-0.422,0.433 -0.929,0.782 -1.52,1.046c-0.592,0.263 -1.245,0.395 -1.96,0.395c-0.68,0 -1.301,-0.114 -1.864,-0.343c-0.562,-0.228 -1.048,-0.542 -1.459,-0.94c-0.41,-0.398 -0.729,-0.856 -0.958,-1.371c-0.228,-0.516 -0.342,-1.067 -0.342,-1.652c0,-0.165 0.011,-0.334 0.035,-0.51c0.023,-0.176 0.047,-0.34 0.07,-0.492c-0.75,0.703 -1.318,1.511 -1.705,2.425c-0.387,0.914 -0.58,2.022 -0.58,3.323c0,1.101 0.176,2.091 0.527,2.97c0.352,0.879 0.829,1.656 1.433,2.329c0.603,0.674 1.31,1.254 2.118,1.741c0.809,0.486 1.67,0.881 2.584,1.186c0.914,0.305 1.855,0.53 2.821,0.677c0.967,0.146 1.919,0.22 2.857,0.22c0.961,0 1.93,-0.071 2.909,-0.211c0.979,-0.141 1.922,-0.361 2.83,-0.659c0.908,-0.299 1.755,-0.674 2.54,-1.125c0.785,-0.452 1.471,-0.991 2.057,-1.618c0.586,-0.627 1.049,-1.341 1.388,-2.144c0.34,-0.803 0.51,-1.702 0.51,-2.698c0,-0.997 -0.181,-1.969 -0.545,-2.918c-0.363,-0.95 -0.884,-1.823 -1.564,-2.62c-0.68,-0.796 -1.509,-1.505 -2.487,-2.126c-0.979,-0.622 -2.078,-1.108 -3.296,-1.459l0.316,-2.057Z" style="fill:#f6bd60;fill-rule:nonzero;"/><path d="M65.883,31.108c-0.937,0 -1.766,-0.118 -2.487,-0.352c-0.721,-0.234 -1.348,-0.539 -1.881,-0.914c-0.533,-0.375 -0.987,-0.797 -1.362,-1.266c-0.375,-0.468 -0.689,-0.934 -0.94,-1.397c-0.252,-0.463 -0.452,-0.902 -0.598,-1.318c-0.147,-0.416 -0.261,-0.759 -0.343,-1.029l1.512,-3.111c0.176,1.055 0.43,2.007 0.764,2.856c0.334,0.85 0.753,1.574 1.257,2.171c0.504,0.598 1.096,1.061 1.776,1.389c0.679,0.328 1.447,0.492 2.302,0.492c0.75,0 1.439,-0.158 2.066,-0.475c0.627,-0.316 1.166,-0.764 1.617,-1.344c0.451,-0.58 0.803,-1.286 1.055,-2.118c0.252,-0.832 0.378,-1.764 0.378,-2.795c0,-1.243 -0.191,-2.438 -0.572,-3.586c-0.38,-1.149 -0.917,-2.195 -1.608,-3.138c-0.691,-0.943 -1.529,-1.761 -2.514,-2.452c-0.984,-0.692 -2.08,-1.201 -3.287,-1.529l0.317,-2.198c0.855,0.164 1.696,0.443 2.522,0.835c0.826,0.393 1.611,0.882 2.356,1.468c0.744,0.586 1.429,1.266 2.056,2.039c0.627,0.774 1.172,1.62 1.635,2.54c0.463,0.92 0.823,1.907 1.081,2.962c0.258,1.055 0.387,2.162 0.387,3.322c0,1.524 -0.22,2.845 -0.659,3.964c-0.44,1.119 -1.017,2.048 -1.732,2.786c-0.715,0.739 -1.517,1.289 -2.408,1.653c-0.891,0.363 -1.787,0.545 -2.69,0.545Z" style="fill:#f6bd60;fill-rule:nonzero;"/><path d="M84.63,11.162c-0.809,0 -1.609,0.232 -2.4,0.694c-0.791,0.463 -1.5,1.131 -2.127,2.004c-0.627,0.873 -1.134,1.94 -1.52,3.2c-0.387,1.259 -0.58,2.68 -0.58,4.262c0,0.574 0.029,1.196 0.088,1.864c0.058,0.668 0.149,1.362 0.272,2.083c0.123,0.72 0.287,1.456 0.492,2.206c0.205,0.75 0.454,1.488 0.747,2.214l-2.215,0.879c-0.363,-0.82 -0.659,-1.661 -0.887,-2.522c-0.229,-0.861 -0.407,-1.702 -0.536,-2.523c-0.129,-0.82 -0.217,-1.59 -0.264,-2.311c-0.047,-0.721 -0.07,-1.351 -0.07,-1.89c0,-1.019 0.088,-2.03 0.263,-3.032c0.176,-1.002 0.44,-1.957 0.791,-2.865c0.352,-0.908 0.783,-1.749 1.292,-2.523c0.51,-0.773 1.099,-1.441 1.767,-2.004c0.668,-0.562 1.409,-1.004 2.224,-1.327c0.814,-0.322 1.702,-0.483 2.663,-0.483c0.961,0 1.848,0.161 2.663,0.483c0.814,0.323 1.555,0.765 2.223,1.327c0.668,0.563 1.26,1.231 1.776,2.004c0.515,0.774 0.946,1.615 1.292,2.523c0.345,0.908 0.609,1.863 0.791,2.865c0.181,1.002 0.272,2.013 0.272,3.032c0,0.539 -0.026,1.169 -0.079,1.89c-0.053,0.721 -0.143,1.491 -0.272,2.311c-0.129,0.821 -0.308,1.662 -0.536,2.523c-0.229,0.861 -0.525,1.702 -0.888,2.522l-2.215,-0.879c0.293,-0.726 0.542,-1.464 0.747,-2.214c0.205,-0.75 0.369,-1.486 0.492,-2.206c0.123,-0.721 0.214,-1.415 0.273,-2.083c0.058,-0.668 0.088,-1.29 0.088,-1.864c0,-1.582 -0.194,-3.003 -0.58,-4.262c-0.387,-1.26 -0.894,-2.327 -1.521,-3.2c-0.627,-0.873 -1.336,-1.541 -2.127,-2.004c-0.791,-0.462 -1.591,-0.694 -2.399,-0.694Zm1.459,-1.055l-2.953,0l-4.711,-4.869l0,-0.176l1.88,-1.669l4.325,5.326l7.4,-8.719l1.881,1.67l0,0.176l-7.822,8.261Z" style="fill:#f6bd60;fill-rule:nonzero;"/><path d="M99.462,31.037c-0.937,0 -1.766,-0.117 -2.487,-0.351c-0.721,-0.235 -1.348,-0.539 -1.881,-0.914c-0.533,-0.375 -0.987,-0.797 -1.362,-1.266c-0.375,-0.469 -0.689,-0.935 -0.941,-1.397c-0.252,-0.463 -0.451,-0.903 -0.597,-1.319c-0.147,-0.416 -0.261,-0.759 -0.343,-1.028l1.512,-3.111c0.175,1.054 0.43,2.006 0.764,2.856c0.334,0.85 0.753,1.573 1.257,2.171c0.504,0.598 1.096,1.06 1.775,1.389c0.68,0.328 1.448,0.492 2.303,0.492c0.75,0 1.439,-0.158 2.066,-0.475c0.627,-0.316 1.166,-0.764 1.617,-1.345c0.451,-0.58 0.802,-1.286 1.054,-2.118c0.252,-0.832 0.378,-1.763 0.378,-2.795c0,-1.242 -0.19,-2.437 -0.571,-3.586c-0.381,-1.148 -0.917,-2.194 -1.608,-3.137c-0.692,-0.944 -1.53,-1.761 -2.514,-2.452c-0.984,-0.692 -2.08,-1.202 -3.287,-1.53l0.316,-2.197c0.856,0.164 1.697,0.442 2.523,0.835c0.826,0.393 1.611,0.882 2.355,1.468c0.744,0.586 1.43,1.265 2.057,2.039c0.627,0.773 1.172,1.62 1.635,2.54c0.463,0.92 0.823,1.907 1.081,2.962c0.258,1.054 0.386,2.162 0.386,3.322c0,1.523 -0.219,2.845 -0.659,3.964c-0.439,1.119 -1.016,2.048 -1.731,2.786c-0.715,0.738 -1.518,1.289 -2.408,1.652c-0.891,0.364 -1.788,0.545 -2.69,0.545Z" style="fill:#f6bd60;fill-rule:nonzero;"/></g></svg>